<svg width="17" height="14" viewBox="0 0 17 14" fill="none" xmlns="http://www.w3.org/2000/svg">
<path d="M14.3841 1.16349C13.3074 0.621128 12.1417 0.227481 10.9274 4.02379e-05C10.9167 -0.000327694 10.9061 0.00183131 10.8964 0.0063655C10.8866 0.0108997 10.8778 0.0176989 10.8707 0.0262836C10.725 0.314958 10.555 0.691109 10.4417 0.979784C9.15367 0.769839 7.84382 0.769839 6.55584 0.979784C6.4425 0.682362 6.2725 0.314958 6.11868 0.0262836C6.11059 0.00878813 6.0863 4.02379e-05 6.06201 4.02379e-05C4.84769 0.227481 3.69004 0.621128 2.60525 1.16349C2.59716 1.16349 2.58906 1.17223 2.58097 1.18098C0.379 4.7413 -0.228159 8.20539 0.0713729 11.6345C0.0713729 11.652 0.0794683 11.6695 0.0956592 11.6782C1.55284 12.8329 2.95336 13.5327 4.33768 13.9964C4.36197 14.0051 4.38625 13.9964 4.39435 13.9789C4.71817 13.4978 5.0096 12.9904 5.26056 12.4568C5.27675 12.4218 5.26056 12.3868 5.22818 12.378C4.76674 12.1856 4.32959 11.9582 3.90053 11.6957C3.86814 11.6782 3.86814 11.6257 3.89243 11.5995C3.98148 11.5295 4.07053 11.4508 4.15958 11.3808C4.17577 11.3633 4.20006 11.3633 4.21625 11.3721C7.00109 12.7455 10.0045 12.7455 12.757 11.3721C12.7731 11.3633 12.7974 11.3633 12.8136 11.3808C12.9027 11.4595 12.9917 11.5295 13.0808 11.6083C13.1132 11.6345 13.1132 11.687 13.0727 11.7045C12.6517 11.9757 12.2065 12.1943 11.745 12.3868C11.7126 12.3955 11.7045 12.4393 11.7126 12.4655C11.9717 12.9991 12.2631 13.5065 12.5789 13.9876C12.6031 13.9964 12.6274 14.0051 12.6517 13.9964C14.0441 13.5327 15.4446 12.8329 16.9018 11.6782C16.918 11.6695 16.9261 11.652 16.9261 11.6345C17.2823 7.67178 16.3351 4.23393 14.4165 1.18098C14.4084 1.17223 14.4003 1.16349 14.3841 1.16349ZM5.68153 9.54379C4.84769 9.54379 4.15148 8.71276 4.15148 7.68928C4.15148 6.66579 4.8315 5.83476 5.68153 5.83476C6.53965 5.83476 7.21966 6.67454 7.21157 7.68928C7.21157 8.71276 6.53155 9.54379 5.68153 9.54379ZM11.3241 9.54379C10.4902 9.54379 9.79402 8.71276 9.79402 7.68928C9.79402 6.66579 10.474 5.83476 11.3241 5.83476C12.1822 5.83476 12.8622 6.67454 12.8541 7.68928C12.8541 8.71276 12.1822 9.54379 11.3241 9.54379Z" fill="white"/>
</svg>
