<svg width="17" height="15" viewBox="0 0 17 15" fill="none" xmlns="http://www.w3.org/2000/svg">
<path d="M17 1.76471C16.3743 2.07353 15.6998 2.27647 15.001 2.37353C15.7161 1.90588 16.2686 1.16471 16.5287 0.273529C15.8542 0.714706 15.1066 1.02353 14.3184 1.2C13.6764 0.441177 12.7744 0 11.7505 0C9.84082 0 8.28059 1.69412 8.28059 3.78529C8.28059 4.08529 8.3131 4.37647 8.36998 4.65C5.47706 4.49118 2.90105 2.98235 1.18642 0.697059C0.885755 1.25294 0.715105 1.90588 0.715105 2.59412C0.715105 3.90882 1.32457 5.07353 2.26721 5.73529C1.69025 5.73529 1.15392 5.55882 0.682601 5.29412V5.32059C0.682601 7.15588 1.88528 8.69118 3.47801 9.03529C2.96665 9.18724 2.42981 9.20839 1.90966 9.09706C2.13037 9.84925 2.56263 10.5074 3.14566 10.9791C3.7287 11.4507 4.4332 11.7121 5.16013 11.7265C3.9279 12.7857 2.40048 13.3582 0.828872 13.35C0.552581 13.35 0.276291 13.3324 0 13.2971C1.54398 14.3735 3.3805 15 5.34704 15C11.7505 15 15.2691 9.22941 15.2691 4.22647C15.2691 4.05882 15.2691 3.9 15.261 3.73235C15.9436 3.20294 16.5287 2.53235 17 1.76471Z" fill="white"/>
</svg>
